<svg width="236" height="236" viewBox="0 0 236 236" fill="none" xmlns="http://www.w3.org/2000/svg">
<defs>
<linearGradient id="cp_ring" x1="30" y1="30" x2="206" y2="206" gradientUnits="userSpaceOnUse"><stop offset="0" stop-color="#ffe7a3"/><stop offset="0.4" stop-color="#e2ab3b"/><stop offset="0.75" stop-color="#a8700f"/><stop offset="1" stop-color="#e9bc55"/></linearGradient>
<linearGradient id="cp_ring_side" x1="0" y1="60" x2="0" y2="230" gradientUnits="userSpaceOnUse"><stop offset="0" stop-color="#9a6510"/><stop offset="1" stop-color="#5c3b06"/></linearGradient>
<radialGradient id="cp_face" cx="118" cy="108" r="92" gradientUnits="userSpaceOnUse"><stop offset="0" stop-color="#ffffff"/><stop offset="0.8" stop-color="#f1ede2"/><stop offset="1" stop-color="#d9d0bb"/></radialGradient>
<linearGradient id="cp_red" x1="118" y1="50" x2="118" y2="118" gradientUnits="userSpaceOnUse"><stop offset="0" stop-color="#ff6b62"/><stop offset="1" stop-color="#c3261f"/></linearGradient>
<linearGradient id="cp_white" x1="118" y1="118" x2="118" y2="186" gradientUnits="userSpaceOnUse"><stop offset="0" stop-color="#e7ebf0"/><stop offset="1" stop-color="#8f9aa7"/></linearGradient>
<radialGradient id="cp_glass" cx="84" cy="70" r="120" gradientUnits="userSpaceOnUse"><stop offset="0" stop-color="white" stop-opacity="0.7"/><stop offset="0.35" stop-color="white" stop-opacity="0.12"/><stop offset="1" stop-color="white" stop-opacity="0"/></radialGradient>
<radialGradient id="cp_pin" cx="0" cy="0" r="9" gradientUnits="userSpaceOnUse"><stop offset="0" stop-color="#ffffff"/><stop offset="0.5" stop-color="#d5a13a"/><stop offset="1" stop-color="#7c5208"/></radialGradient>
<filter id="cpshadow" x="-20" y="-20" width="276" height="276" filterUnits="userSpaceOnUse" color-interpolation-filters="sRGB"><feDropShadow dx="0" dy="5" stdDeviation="6" flood-color="#402605" flood-opacity="0.45"/></filter>
</defs>
<g filter="url(#cpshadow)">
<circle cx="118" cy="124" r="100" fill="url(#cp_ring_side)"/>
<circle cx="118" cy="118" r="100" fill="url(#cp_ring)"/>
</g>
<rect x="104" y="6" width="28" height="20" rx="8" fill="url(#cp_ring)"/>
<circle cx="118" cy="118" r="86" fill="#8a5a0c"/>
<circle cx="118" cy="118" r="84" fill="url(#cp_face)"/>
<line x1="188.0" y1="118.0" x2="198.0" y2="118.0" stroke="#34465e" stroke-width="3" stroke-linecap="round"/><line x1="193.8" y1="131.4" x2="196.8" y2="131.9" stroke="#34465e" stroke-width="1.6" stroke-linecap="round"/><line x1="190.4" y1="144.3" x2="193.2" y2="145.4" stroke="#34465e" stroke-width="1.6" stroke-linecap="round"/><line x1="182.1" y1="155.0" x2="187.3" y2="158.0" stroke="#34465e" stroke-width="1.6" stroke-linecap="round"/><line x1="177.0" y1="167.5" x2="179.3" y2="169.4" stroke="#34465e" stroke-width="1.6" stroke-linecap="round"/><line x1="167.5" y1="177.0" x2="169.4" y2="179.3" stroke="#34465e" stroke-width="1.6" stroke-linecap="round"/><line x1="155.0" y1="182.1" x2="158.0" y2="187.3" stroke="#34465e" stroke-width="1.6" stroke-linecap="round"/><line x1="144.3" y1="190.4" x2="145.4" y2="193.2" stroke="#34465e" stroke-width="1.6" stroke-linecap="round"/><line x1="131.4" y1="193.8" x2="131.9" y2="196.8" stroke="#34465e" stroke-width="1.6" stroke-linecap="round"/><line x1="118.0" y1="188.0" x2="118.0" y2="198.0" stroke="#34465e" stroke-width="3" stroke-linecap="round"/><line x1="104.6" y1="193.8" x2="104.1" y2="196.8" stroke="#34465e" stroke-width="1.6" stroke-linecap="round"/><line x1="91.7" y1="190.4" x2="90.6" y2="193.2" stroke="#34465e" stroke-width="1.6" stroke-linecap="round"/><line x1="81.0" y1="182.1" x2="78.0" y2="187.3" stroke="#34465e" stroke-width="1.6" stroke-linecap="round"/><line x1="68.5" y1="177.0" x2="66.6" y2="179.3" stroke="#34465e" stroke-width="1.6" stroke-linecap="round"/><line x1="59.0" y1="167.5" x2="56.7" y2="169.4" stroke="#34465e" stroke-width="1.6" stroke-linecap="round"/><line x1="53.9" y1="155.0" x2="48.7" y2="158.0" stroke="#34465e" stroke-width="1.6" stroke-linecap="round"/><line x1="45.6" y1="144.3" x2="42.8" y2="145.4" stroke="#34465e" stroke-width="1.6" stroke-linecap="round"/><line x1="42.2" y1="131.4" x2="39.2" y2="131.9" stroke="#34465e" stroke-width="1.6" stroke-linecap="round"/><line x1="48.0" y1="118.0" x2="38.0" y2="118.0" stroke="#34465e" stroke-width="3" stroke-linecap="round"/><line x1="42.2" y1="104.6" x2="39.2" y2="104.1" stroke="#34465e" stroke-width="1.6" stroke-linecap="round"/><line x1="45.6" y1="91.7" x2="42.8" y2="90.6" stroke="#34465e" stroke-width="1.6" stroke-linecap="round"/><line x1="53.9" y1="81.0" x2="48.7" y2="78.0" stroke="#34465e" stroke-width="1.6" stroke-linecap="round"/><line x1="59.0" y1="68.5" x2="56.7" y2="66.6" stroke="#34465e" stroke-width="1.6" stroke-linecap="round"/><line x1="68.5" y1="59.0" x2="66.6" y2="56.7" stroke="#34465e" stroke-width="1.6" stroke-linecap="round"/><line x1="81.0" y1="53.9" x2="78.0" y2="48.7" stroke="#34465e" stroke-width="1.6" stroke-linecap="round"/><line x1="91.7" y1="45.6" x2="90.6" y2="42.8" stroke="#34465e" stroke-width="1.6" stroke-linecap="round"/><line x1="104.6" y1="42.2" x2="104.1" y2="39.2" stroke="#34465e" stroke-width="1.6" stroke-linecap="round"/><line x1="118.0" y1="48.0" x2="118.0" y2="38.0" stroke="#34465e" stroke-width="3" stroke-linecap="round"/><line x1="131.4" y1="42.2" x2="131.9" y2="39.2" stroke="#34465e" stroke-width="1.6" stroke-linecap="round"/><line x1="144.3" y1="45.6" x2="145.4" y2="42.8" stroke="#34465e" stroke-width="1.6" stroke-linecap="round"/><line x1="155.0" y1="53.9" x2="158.0" y2="48.7" stroke="#34465e" stroke-width="1.6" stroke-linecap="round"/><line x1="167.5" y1="59.0" x2="169.4" y2="56.7" stroke="#34465e" stroke-width="1.6" stroke-linecap="round"/><line x1="177.0" y1="68.5" x2="179.3" y2="66.6" stroke="#34465e" stroke-width="1.6" stroke-linecap="round"/><line x1="182.1" y1="81.0" x2="187.3" y2="78.0" stroke="#34465e" stroke-width="1.6" stroke-linecap="round"/><line x1="190.4" y1="91.7" x2="193.2" y2="90.6" stroke="#34465e" stroke-width="1.6" stroke-linecap="round"/><line x1="193.8" y1="104.6" x2="196.8" y2="104.1" stroke="#34465e" stroke-width="1.6" stroke-linecap="round"/>
<text x="118" y="64" text-anchor="middle" font-family="Sans" font-weight="700" font-size="20" fill="#c3261f">N</text>
<path d="M118 46 L132 118 L104 118 Z" fill="url(#cp_red)"/>
<path d="M118 190 L104 118 L132 118 Z" fill="url(#cp_white)"/>
<path d="M118 46 L118 190" stroke="#000" stroke-opacity="0.08" stroke-width="1"/>
<g transform="translate(118 118)"><circle r="9" fill="url(#cp_pin)"/></g>
<circle cx="118" cy="118" r="84" fill="url(#cp_glass)"/>
</svg>
